HIERARCHY
ROOT pelvis
{
  OFFSET 0 100 0
  CHANNELS 6 Xposition Yposition Zposition Zrotation Xrotation Yrotation
  JOINT pelvis_right_femur
  {
    OFFSET -10.78128 -3.44521 -0.5502486
    CHANNELS 3 Zrotation Xrotation Yrotation
    JOINT right_femur_tibia
    {
      OFFSET -0.8047443 -44.0398 -0.1307829
      CHANNELS 3 Zrotation Xrotation Yrotation
      JOINT right_tibia_foot
      {
        OFFSET 3.006224 -47.83518 -5
        CHANNELS 3 Zrotation Xrotation Yrotation
        End Site
        {
          OFFSET 0 -5 15
        }
      }
    }
  }
  JOINT pelvis_left_femur
  {
    OFFSET 10.78128 -3.44521 -0.5502486
    CHANNELS 3 Zrotation Xrotation Yrotation
    JOINT left_femur_tibia
    {
      OFFSET 0.8047443 -44.0398 -0.1307829
      CHANNELS 3 Zrotation Xrotation Yrotation
      JOINT left_tibia_foot
      {
        OFFSET -4.370144 -48.10324 -4.275266
        CHANNELS 3 Zrotation Xrotation Yrotation
        End Site
        {
          OFFSET 0 -5 15
        }
      }
    }
  }
  JOINT pelvis_spine1
  {
    OFFSET 0 6.468898 -3.129235
    CHANNELS 3 Zrotation Xrotation Yrotation
    JOINT spine1
    {
      OFFSET 0 23.15396 4.99043
      CHANNELS 3 Zrotation Xrotation Yrotation
      JOINT spine2
      {
        OFFSET 0 20.79997 -5.064912
        CHANNELS 3 Zrotation Xrotation Yrotation
        JOINT neck
        {
          OFFSET 0 14.38658 9.616178
          CHANNELS 3 Zrotation Xrotation Yrotation
          End Site
          {
            OFFSET 0 20 0
          }
        }
      }
      JOINT right_manubrium
      {
        OFFSET -5.722621 16.35077 3.967754
        CHANNELS 3 Zrotation Xrotation Yrotation
        JOINT right_clavicle
        {
          OFFSET -13.16364 1.694482 -4.693211
          CHANNELS 3 Zrotation Xrotation Yrotation
          JOINT right_humerus
          {
            OFFSET -28.5034 -0.3100689 -2.792744
            CHANNELS 3 Zrotation Xrotation Yrotation
            JOINT right_radius
            {
              OFFSET -25.15693 0.02248979 -1.271978
              CHANNELS 3 Zrotation Xrotation Yrotation
              End Site
              {
                OFFSET -15 0 0
              }
            }
          }
        }
      }
      JOINT left_manubrium
      {
        OFFSET 5.722621 16.35077 3.967754
        CHANNELS 3 Zrotation Xrotation Yrotation
        JOINT left_clavicle
        {
          OFFSET 13.16364 1.694482 -4.693211
          CHANNELS 3 Zrotation Xrotation Yrotation
          JOINT left_humerus
          {
            OFFSET 29.39168 -1.063119 -2.237045
            CHANNELS 3 Zrotation Xrotation Yrotation
            JOINT left_radius
            {
              OFFSET 24.59957 -0.9528479 0.9047498
              CHANNELS 3 Zrotation Xrotation Yrotation
              End Site
              {
                OFFSET 15 -0 -0
              }
            }
          }
        }
      }
    }
  }
}
MOTION
Frames: 11
Frame Time: 0.0416666666667
-217.0851 106.7302 146.9415 2.316408 4.022713 141.1327 3.674704 2.830272 -3.385861 -0 17.20821 -0 -9.206861 -15.27112 0.9487522 0.644163 -15.96549 -7.549198 -0 21.43377 -0 25.96277 5.093761 17.01652 -4.066776 -10.70444 5.470557 4.129501 20.09209 -8.858596 1.685461 23.5629 0.3977597 2.796942 -13.11596 0.7132263 15.59829 -22.27808 19.84498 71.46716 22.03488 -8.299061 -0 0 17.55373 -30.30881 29.16814 21.4435 2.669819 -28.04188 -11.45719 -93.87114 5.63725 22.73506 0 0 -1.791287 30.96706 29.2659 -23.28335
-216.0852 106.7238 144.6371 2.402563 3.971912 139.8968 3.674704 2.830272 -3.385861 -0 17.20821 -0 -9.206861 -15.27112 0.9487522 0.644163 -15.96549 -7.549198 -0 21.43377 -0 25.96277 5.093761 17.01652 -4.066776 -10.70444 5.470557 4.129501 20.09209 -8.858596 1.685461 23.5629 0.3977597 2.796942 -13.11596 0.7132263 15.59829 -22.27808 19.84498 71.46716 22.03488 -8.299061 -0 0 17.55373 -30.30881 29.16814 21.4435 2.669819 -28.04188 -11.45719 -93.87114 5.63725 22.73506 0 0 -1.791287 30.96706 29.2659 -23.28335
-215.0359 106.7173 142.3547 2.487594 3.91927 138.6611 3.674704 2.830272 -3.385861 -0 17.20821 -0 -9.206861 -15.27112 0.9487522 0.644163 -15.96549 -7.549198 -0 21.43377 -0 25.96277 5.093761 17.01652 -4.066776 -10.70444 5.470557 4.129501 20.09209 -8.858596 1.685461 23.5629 0.3977597 2.796942 -13.11596 0.7132263 15.59829 -22.27808 19.84498 71.46716 22.03488 -8.299061 -0 0 17.55373 -30.30881 29.16814 21.4435 2.669819 -28.04188 -11.45719 -93.87114 5.63725 22.73506 0 0 -1.791287 30.96706 29.2659 -23.28335
-213.9377 106.7109 140.0954 2.571463 3.86481 137.4255 3.674704 2.830272 -3.385861 -0 17.20821 -0 -9.206861 -15.27112 0.9487522 0.644163 -15.96549 -7.549198 -0 21.43377 -0 25.96277 5.093761 17.01652 -4.066776 -10.70444 5.470557 4.129501 20.09209 -8.858596 1.685461 23.5629 0.3977597 2.796942 -13.11596 0.7132263 15.59829 -22.27808 19.84498 71.46716 22.03488 -8.299061 -0 0 17.55373 -30.30881 29.16814 21.4435 2.669819 -28.04188 -11.45719 -93.87114 5.63725 22.73506 0 0 -1.791287 30.96706 29.2659 -23.28335
-212.7911 106.7044 137.8603 2.654129 3.808559 136.1901 3.674704 2.830272 -3.385861 -0 17.20821 -0 -9.206861 -15.27112 0.9487522 0.644163 -15.96549 -7.549198 -0 21.43377 -0 25.96277 5.093761 17.01652 -4.066776 -10.70444 5.470557 4.129501 20.09209 -8.858596 1.685461 23.5629 0.3977597 2.796942 -13.11596 0.7132263 15.59829 -22.27808 19.84498 71.46716 22.03488 -8.299061 -0 0 17.55373 -30.30881 29.16814 21.4435 2.669819 -28.04188 -11.45719 -93.87114 5.63725 22.73506 0 0 -1.791287 30.96706 29.2659 -23.28335
-211.5966 106.698 135.6504 2.735556 3.750543 134.9549 3.674704 2.830272 -3.385861 -0 17.20821 -0 -9.206861 -15.27112 0.9487522 0.644163 -15.96549 -7.549198 -0 21.43377 -0 25.96277 5.093761 17.01652 -4.066776 -10.70444 5.470557 4.129501 20.09209 -8.858596 1.685461 23.5629 0.3977597 2.796942 -13.11596 0.7132263 15.59829 -22.27808 19.84498 71.46716 22.03488 -8.299061 -0 0 17.55373 -30.30881 29.16814 21.4435 2.669819 -28.04188 -11.45719 -93.87114 5.63725 22.73506 0 0 -1.791287 30.96706 29.2659 -23.28335
-210.3548 106.6915 133.4667 2.815705 3.690789 133.7199 3.674704 2.830272 -3.385861 -0 17.20821 -0 -9.206861 -15.27112 0.9487522 0.644163 -15.96549 -7.549198 -0 21.43377 -0 25.96277 5.093761 17.01652 -4.066776 -10.70444 5.470557 4.129501 20.09209 -8.858596 1.685461 23.5629 0.3977597 2.796942 -13.11596 0.7132263 15.59829 -22.27808 19.84498 71.46716 22.03488 -8.299061 -0 0 17.55373 -30.30881 29.16814 21.4435 2.669819 -28.04188 -11.45719 -93.87114 5.63725 22.73506 0 0 -1.791287 30.96706 29.2659 -23.28335
-209.0663 106.6851 131.3103 2.894539 3.629325 132.485 3.674704 2.830272 -3.385861 -0 17.20821 -0 -9.206861 -15.27112 0.9487522 0.644163 -15.96549 -7.549198 -0 21.43377 -0 25.96277 5.093761 17.01652 -4.066776 -10.70444 5.470557 4.129501 20.09209 -8.858596 1.685461 23.5629 0.3977597 2.796942 -13.11596 0.7132263 15.59829 -22.27808 19.84498 71.46716 22.03488 -8.299061 -0 0 17.55373 -30.30881 29.16814 21.4435 2.669819 -28.04188 -11.45719 -93.87114 5.63725 22.73506 0 0 -1.791287 30.96706 29.2659 -23.28335
-207.7317 106.6786 129.1821 2.972023 3.56618 131.2502 3.674704 2.830272 -3.385861 -0 17.20821 -0 -9.206861 -15.27112 0.9487522 0.644163 -15.96549 -7.549198 -0 21.43377 -0 25.96277 5.093761 17.01652 -4.066776 -10.70444 5.470557 4.129501 20.09209 -8.858596 1.685461 23.5629 0.3977597 2.796942 -13.11596 0.7132263 15.59829 -22.27808 19.84498 71.46716 22.03488 -8.299061 -0 0 17.55373 -30.30881 29.16814 21.4435 2.669819 -28.04188 -11.45719 -93.87114 5.63725 22.73506 0 0 -1.791287 30.96706 29.2659 -23.28335
-206.3515 106.6722 127.0832 3.04812 3.501383 130.0157 3.674704 2.830272 -3.385861 -0 17.20821 -0 -9.206861 -15.27112 0.9487522 0.644163 -15.96549 -7.549198 -0 21.43377 -0 25.96277 5.093761 17.01652 -4.066776 -10.70444 5.470557 4.129501 20.09209 -8.858596 1.685461 23.5629 0.3977597 2.796942 -13.11596 0.7132263 15.59829 -22.27808 19.84498 71.46716 22.03488 -8.299061 -0 0 17.55373 -30.30881 29.16814 21.4435 2.669819 -28.04188 -11.45719 -93.87114 5.63725 22.73506 0 0 -1.791287 30.96706 29.2659 -23.28335
-204.9264 106.6657 125.0145 3.122795 3.434965 128.7813 3.674704 2.830272 -3.385861 -0 17.20821 -0 -9.206861 -15.27112 0.9487522 0.644163 -15.96549 -7.549198 -0 21.43377 -0 25.96277 5.093761 17.01652 -4.066776 -10.70444 5.470557 4.129501 20.09209 -8.858596 1.685461 23.5629 0.3977597 2.796942 -13.11596 0.7132263 15.59829 -22.27808 19.84498 71.46716 22.03488 -8.299061 -0 0 17.55373 -30.30881 29.16814 21.4435 2.669819 -28.04188 -11.45719 -93.87114 5.63725 22.73506 0 0 -1.791287 30.96706 29.2659 -23.28335
